<svg width="70" height="70" viewBox="0 0 70 70" fill="none" xmlns="http://www.w3.org/2000/svg">
<circle cx="35" cy="35" r="35" fill="#2A592E"/>
<path d="M16.9473 23.0544C16.9473 21.7165 18.0319 20.6318 19.3698 20.6318H43.6841C44.7887 20.6318 45.6841 21.5273 45.6841 22.6318V25.9594C45.6841 26.4859 46.0923 26.9222 46.6176 26.9572L47.3158 27.0038C49.7367 27.1652 51.9015 28.5687 53.0367 30.7131L54.0764 32.6769C54.3689 33.2295 54.8268 33.6769 55.3861 33.9565L55.6315 34.0792L56.4873 34.5071C56.6532 34.5901 56.8265 34.6575 57.0048 34.7084L58.459 35.1239C58.9951 35.2771 59.4211 35.685 59.5974 36.2139C59.6548 36.3861 59.6841 36.5665 59.6841 36.7481V43.4213C59.6841 45.0782 58.341 46.4213 56.6841 46.4213H54.5262C54.5262 46.4213 54.5262 40.1582 48.9999 40.1582C43.4736 40.1582 43.4736 46.4213 43.4736 46.4213H32.4209C32.4209 46.4213 32.4209 40.1582 26.5262 40.1582C20.6315 40.1582 20.9999 46.4213 20.9999 46.4213H19.9473C18.2904 46.4213 16.9473 45.0782 16.9473 43.4213V40.9476C16.9473 39.2908 18.2904 37.9476 19.9473 37.9476H26.0675C26.6051 37.9476 27.1288 37.7773 27.5635 37.4611L28.0341 37.1189C29.362 36.1532 29.194 34.1236 27.7254 33.3893C27.4214 33.2373 27.0861 33.1582 26.7461 33.1582H18.2367C17.5246 33.1582 16.9473 32.5808 16.9473 31.8687C16.9473 31.1565 17.5246 30.5792 18.2367 30.5792H27.9999H30.3668C31.7047 30.5792 32.7894 29.4946 32.7894 28.1566C32.7894 26.8406 31.7388 25.7653 30.4231 25.7347L19.3135 25.4763C17.9979 25.4457 16.9473 24.3704 16.9473 23.0544Z" fill="white"/>
<circle cx="26.8944" cy="46.0531" r="4.05263" fill="white"/>
<circle cx="26.8948" cy="46.0526" r="1.84211" fill="#2A592E"/>
<circle cx="48.9999" cy="46.0531" r="4.05263" fill="white"/>
<circle cx="49.0003" cy="46.0526" r="1.84211" fill="#2A592E"/>
<path d="M45.6836 28.7371H47.2355C48.3752 28.7371 49.4789 29.1366 50.3544 29.8663C50.9175 30.3355 51.3674 30.9257 51.6707 31.5929L53.052 34.6318H45.6836V28.7371Z" fill="#2A592E"/>
<rect x="14" y="26.5269" width="17.6842" height="2.94737" rx="1.47368" fill="white"/>
<rect x="11.0527" y="33.8943" width="16.9474" height="2.94737" rx="1.47368" fill="white"/>
</svg>
