<svg width="70" height="70" viewBox="0 0 70 70" fill="none" xmlns="http://www.w3.org/2000/svg">
<circle cx="35" cy="35" r="35" fill="#2A592E"/>
<rect x="27.1777" y="32.6926" width="30.4211" height="21.579" rx="4" stroke="white" stroke-width="2"/>
<rect x="26.1777" y="39.0615" width="32.4211" height="4.42105" fill="white"/>
<path d="M12.3773 37.1557C10.4247 35.203 10.4247 32.0372 12.3773 30.0846L25.6636 16.7984C27.6162 14.8457 30.782 14.8457 32.7346 16.7984L42.3293 26.3931C43.0544 27.1181 43.1949 28.2428 42.6705 29.1239C42.2664 29.8028 41.5347 30.2188 40.7447 30.2188L26.4321 30.2188C25.2902 30.2188 24.3801 31.1733 24.4344 32.3139L25.0353 44.934C25.0586 45.4224 24.9006 45.9021 24.5918 46.2811C23.8496 47.1918 22.483 47.2613 21.6523 46.4306L12.3773 37.1557Z" fill="white"/>
<rect x="28.3906" y="25.4539" width="6.00012" height="4.42105" transform="rotate(-45 28.3906 25.4539)" fill="#2A592E"/>
</svg>
